PathFileType	4	(X/Y/Z)	Patient5_TMGait_0pt45_1_left_02.trc.trc
DataRate	CameraRate	NumFrames	NumMarkers	Units	OrigDataRate	OrigDataStartFrame	OrigNumFrames
59.322033898305	59.322033898305	4	32	mm	59.322033898305	106	       141
Frame#	Time	R.ASIS			L.ASIS			Chest			R.Shoulder			Neck			L.Shoulder			L.Elbow			L.Wrist			R.Elbow			R.Wrist			L.Thigh.Superior			L.Thigh.Lateral			L.Thigh.Inferior			L.Patella			L.Shank.Superior			L.Shank.Lateral			L.Shank.Inferior			L.Heel			L.Midfoot.Lateral			L.Midfoot.Superior			L.Toe			R.Thigh.Superior			R.Thigh.Lateral			R.Thigh.Inferior			R.Patella			R.Shank.Superior			R.Shank.Lateral			R.Shank.Inferior			R.Heel			R.Midfoot.Lateral			R.Midfoot.Superior			R.Toe			
		X1	Y1	Z1	X2	Y2	Z2	X3	Y3	Z3	X4	Y4	Z4	X5	Y5	Z5	X6	Y6	Z6	X7	Y7	Z7	X8	Y8	Z8	X9	Y9	Z9	X10	Y10	Z10	X11	Y11	Z11	X12	Y12	Z12	X13	Y13	Z13	X14	Y14	Z14	X15	Y15	Z15	X16	Y16	Z16	X17	Y17	Z17	X18	Y18	Z18	X19	Y19	Z19	X20	Y20	Z20	X21	Y21	Z21	X22	Y22	Z22	X23	Y23	Z23	X24	Y24	Z24	X25	Y25	Z25	X26	Y26	Z26	X27	Y27	Z27	X28	Y28	Z28	X29	Y29	Z29	X30	Y30	Z30	X31	Y31	Z31	X32	Y32	Z32	

106	3.470000000000	964.443740519103	968.430369342475	627.181234164050	927.140979576191	958.065820128006	391.603239431261	1015.708143213206	1427.399047552923	546.858068008798	934.053728424620	1476.691919786784	727.642338885488	887.623462810810	1549.831330549993	553.066022942316	932.897516381551	1510.549832619264	363.128904954832	820.626670261011	1203.758028686791	229.303319561388	915.893647947380	934.236347322713	196.502665724185	886.542186922654	1147.477682280466	859.447135460946	1104.777216116657	973.017235637712	783.375956053995	992.068421556657	764.296043711865	346.495947578969	936.692749700813	684.551773775358	301.336994871776	1033.262300090827	641.358270951678	344.481376361554	1048.129953983399	493.145418958774	331.036667181322	944.489943973156	412.921280730880	357.531640382005	845.975191891964	406.525489910275	284.662211573797	839.764956427660	343.381833837002	371.431322402960	589.899052084635	274.694676183050	370.516553332835	627.420208377613	183.411362265149	319.719985634806	738.777760292426	152.333309779547	362.745185488448	773.710065653058	47.886668099924	379.496496064088	962.498233530608	735.379039469118	639.174808321889	874.048747477751	661.444196782037	696.947603530646	942.016625775311	607.877779012328	612.905188602131	939.572723152454	513.006958072769	637.142365777189	896.552784048805	420.747771096150	599.884580147731	837.683210683912	347.668742710638	684.311691003852	889.558167153529	282.585816028372	594.736018067458	778.229436842118	53.730967560487	558.684891384917	859.721703320256	24.394305492068	628.527462634661	964.305371729195	88.164743881583	600.332631446256	1068.016427192435	44.596915237716	594.895285207966	
107	3.486857142857	962.365813418455	967.952037209340	629.984965913070	925.104513289149	957.934730803980	393.531929366523	1016.473081769230	1426.178482474279	546.964673432601	936.409692206616	1475.732367752233	728.100921028666	888.836334373514	1549.139599308885	553.780815276773	932.801991167122	1509.913154861328	363.694872689337	818.690817683847	1202.653181203904	231.761671828997	915.794650027919	933.744150034461	199.121735921581	890.495373311963	1147.207667820546	861.949469669743	1106.661588346823	969.840654596223	786.817759056855	994.679650583327	769.872691190281	349.054046432401	942.747416888567	688.845616590188	302.609941463928	1040.527434199872	648.861734489276	346.514545168380	1060.074869623542	500.217067125734	331.953798955245	957.033354592721	418.075058025917	357.695603223000	858.887259794308	411.041980171581	284.469209870550	852.657260657658	347.630194567758	371.069047683935	602.969242891545	274.668983052971	369.775172702733	643.400686185013	186.113982830953	317.267740058316	755.318405986661	157.552206155639	360.373356258212	793.246496274387	52.615420427453	374.782214886774	958.976747732809	734.728491214163	641.380368346923	869.818158330856	661.274313917552	698.694402785104	937.689680577978	607.280652312375	614.929286850913	934.390800949221	512.396517257907	638.892575608632	890.810115631281	420.620395828976	601.270079372010	831.473210446388	347.673570427652	685.414326504019	882.980278548628	282.474571478027	595.707869608853	770.563409819478	53.833070628080	558.958644354497	852.059071314978	24.454707199546	628.651544667164	956.676154549519	88.119285667855	600.503889780890	1060.389405952583	44.613451928279	594.942936133250	
108	3.503714285714	960.264680581545	967.696244923629	632.667078186132	923.181580357629	958.195443926972	395.192580902491	1017.252625145500	1425.177866372647	546.793473782881	938.683272159678	1475.252994893977	728.124234712520	890.133849443324	1548.766601374942	553.951052283019	933.071958634174	1509.323243051871	363.821790994455	817.392339661242	1201.642044720257	233.648118235942	916.397710338439	933.299790079535	201.801891427091	894.112663058559	1147.488553967476	863.999684890866	1107.937077311444	966.833968325387	789.870771932053	996.610318058595	775.438477171560	352.048202205146	947.911989739297	693.369405899562	304.294552379130	1046.528759547273	656.339662131580	349.161328777221	1070.704146676862	507.591915659482	333.346104890658	969.036279429481	422.986659877947	358.227638924005	871.115869638967	414.502323692931	284.874566425625	865.814930299354	350.438870805527	370.998097687347	617.145869794586	269.457443106126	369.615970512989	661.807224834728	185.052169107466	314.776330151904	774.680639733412	160.915198462152	357.536643117082	817.619747443199	57.402141388761	368.860976011340	955.947648439541	734.252182880891	643.247542747183	866.190158989314	661.123373664244	700.086519189409	934.091060900254	606.778578507618	616.616294686129	930.004358852688	511.833932748504	640.319222711900	885.839486591903	420.437354337960	602.374688908531	825.874941195837	347.703910053851	686.269308148202	876.825963909923	282.279933382468	596.453537658270	762.898708232074	53.910897270728	559.200378714359	844.439595251033	24.530625677255	628.737697900269	949.085371953130	88.065347489309	600.641970623403	1052.796438857021	44.619454109354	594.973026354060	
109	3.520571428571	958.223237656779	967.559406111979	634.976433510083	921.335847080322	958.818972077405	396.500460811595	1018.061659397992	1424.375961187356	546.397908066823	940.867075583589	1475.250720650560	727.793683037209	891.508071956209	1548.681596874865	553.656498918774	933.714653071223	1508.740174471550	363.570304112130	816.762942932578	1200.738667640886	234.919024731661	917.698455185806	932.920063856920	204.491920949847	897.218290434187	1148.336064118662	865.668785094019	1108.602189473271	964.327852873212	792.422721905280	997.864361909591	780.775120701505	355.145575704385	952.124632469671	697.869185061659	306.172385427283	1051.284937084811	663.502905294298	352.108003549412	1080.018720448844	515.051430484852	335.019425985291	980.610134251873	427.460497234666	358.985222565104	882.791733331253	416.660313018183	285.725791163127	879.439289689001	351.640512655710	371.086620754087	633.021617258439	259.416322198499	369.910733049845	682.638602771944	180.399003961418	312.243494047654	796.701146982131	162.217470745527	354.213175760666	846.146190197491	61.754212608449	361.805457839755	953.185224939038	733.848213463735	644.669201920044	862.912656027265	660.992139966782	701.112928698104	930.813319214450	606.302101339336	617.872041868838	925.996703117045	511.290995046315	641.343394107721	881.225562207779	420.232610162424	603.166061197516	820.595593418175	347.779555186285	686.886679212755	870.866139666128	282.057447744996	596.966999290384	755.228714217902	53.953822913858	559.393946004335	836.850189519071	24.606257170627	628.790629995299	941.508724493090	88.007264328071	600.753370133106	1045.222251830246	44.625473121693	594.991551831211	
